<svg width="24" height="24" viewBox="0 0 24 24" fill="none" xmlns="http://www.w3.org/2000/svg">
  <path d="M6.288 4.293L2.293 8.293L2.209 8.388C2.05987 8.58052 1.98613 8.82084 2.00159 9.06387C2.01706 9.3069 2.12067 9.53593 2.293 9.708L2.388 9.791C2.58052 9.94012 2.82084 10.0139 3.06387 9.9984C3.3069 9.98294 3.53593 9.87932 3.708 9.707L6 7.41V19L6.007 19.117C6.03543 19.3604 6.15226 19.5849 6.33532 19.7479C6.51838 19.9109 6.75491 20.0009 7 20.001L7.117 19.994C7.36042 19.9653 7.58483 19.8482 7.74761 19.665C7.9104 19.4818 8.00021 19.2451 8 19V7.417L10.293 9.707L10.388 9.791C10.589 9.94832 10.8426 10.0228 11.0967 9.99921C11.3509 9.97562 11.5864 9.85572 11.7551 9.66409C11.9237 9.47246 12.0126 9.2236 12.0037 8.96849C11.9948 8.71339 11.8886 8.47136 11.707 8.292L7.701 4.292L7.607 4.209C7.41448 4.05987 7.17416 3.98613 6.93113 4.00159C6.6881 4.01706 6.45906 4.12067 6.287 4.293H6.288ZM17 4.003L16.883 4.01C16.6397 4.03866 16.4155 4.15559 16.2527 4.33863C16.09 4.52166 16 4.75806 16 5.003V16.583L13.707 14.293L13.612 14.209C13.4109 14.0535 13.1582 13.9804 12.9051 14.0046C12.6521 14.0288 12.4178 14.1485 12.2498 14.3393C12.0818 14.53 11.9928 14.7776 12.0008 15.0317C12.0088 15.2857 12.1133 15.5272 12.293 15.707L16.297 19.707L16.391 19.791C16.5835 19.9401 16.8238 20.0139 17.0669 19.9984C17.3099 19.9829 17.5389 19.8793 17.711 19.707L21.707 15.707L21.791 15.612C21.9401 15.4195 22.0139 15.1792 21.9984 14.9361C21.9829 14.6931 21.8793 14.4641 21.707 14.292L21.612 14.209C21.4195 14.0599 21.1792 13.9861 20.9361 14.0016C20.6931 14.0171 20.4641 14.1207 20.292 14.293L18 16.587V5.003L17.993 4.887C17.9646 4.64357 17.8477 4.41905 17.6647 4.25609C17.4816 4.09312 17.2451 4.00306 17 4.003Z" fill="black" />
</svg>
  