<svg width="26" height="26" viewBox="0 0 26 26" fill="none" xmlns="http://www.w3.org/2000/svg">
  <path fill-rule="evenodd" clip-rule="evenodd" d="M7.79998 6.175C7.79998 5.91641 7.9027 5.66842 8.08555 5.48557C8.26839 5.30272 8.51639 5.2 8.77498 5.2H22.425C22.6836 5.2 22.9316 5.30272 23.1144 5.48557C23.2973 5.66842 23.4 5.91641 23.4 6.175C23.4 6.43359 23.2973 6.68158 23.1144 6.86443C22.9316 7.04728 22.6836 7.15 22.425 7.15H8.77498C8.51639 7.15 8.26839 7.04728 8.08555 6.86443C7.9027 6.68158 7.79998 6.43359 7.79998 6.175ZM7.79998 13C7.79998 12.7414 7.9027 12.4934 8.08555 12.3106C8.26839 12.1277 8.51639 12.025 8.77498 12.025H22.425C22.6836 12.025 22.9316 12.1277 23.1144 12.3106C23.2973 12.4934 23.4 12.7414 23.4 13C23.4 13.2586 23.2973 13.5066 23.1144 13.6894C22.9316 13.8723 22.6836 13.975 22.425 13.975H8.77498C8.51639 13.975 8.26839 13.8723 8.08555 13.6894C7.9027 13.5066 7.79998 13.2586 7.79998 13ZM7.79998 19.825C7.79998 19.5664 7.9027 19.3184 8.08555 19.1356C8.26839 18.9527 8.51639 18.85 8.77498 18.85H22.425C22.6836 18.85 22.9316 18.9527 23.1144 19.1356C23.2973 19.3184 23.4 19.5664 23.4 19.825C23.4 20.0836 23.2973 20.3316 23.1144 20.5144C22.9316 20.6973 22.6836 20.8 22.425 20.8H8.77498C8.51639 20.8 8.26839 20.6973 8.08555 20.5144C7.9027 20.3316 7.79998 20.0836 7.79998 19.825ZM2.58698 6.175C2.58698 5.83022 2.72394 5.49956 2.96774 5.25576C3.21153 5.01196 3.54219 4.875 3.88698 4.875H3.89998C4.24476 4.875 4.57542 5.01196 4.81921 5.25576C5.06301 5.49956 5.19998 5.83022 5.19998 6.175V6.188C5.19998 6.53278 5.06301 6.86344 4.81921 7.10724C4.57542 7.35104 4.24476 7.488 3.89998 7.488H3.88698C3.54219 7.488 3.21153 7.35104 2.96774 7.10724C2.72394 6.86344 2.58698 6.53278 2.58698 6.188V6.175ZM2.58698 19.825C2.58698 19.4802 2.72394 19.1496 2.96774 18.9058C3.21153 18.662 3.54219 18.525 3.88698 18.525H3.89998C4.24476 18.525 4.57542 18.662 4.81921 18.9058C5.06301 19.1496 5.19998 19.4802 5.19998 19.825V19.838C5.19998 20.1828 5.06301 20.5134 4.81921 20.7572C4.57542 21.001 4.24476 21.138 3.89998 21.138H3.88698C3.54219 21.138 3.21153 21.001 2.96774 20.7572C2.72394 20.5134 2.58698 20.1828 2.58698 19.838V19.825ZM2.58698 13C2.58698 12.6552 2.72394 12.3246 2.96774 12.0808C3.21153 11.837 3.54219 11.7 3.88698 11.7H3.89998C4.24476 11.7 4.57542 11.837 4.81921 12.0808C5.06301 12.3246 5.19998 12.6552 5.19998 13V13.013C5.19998 13.3578 5.06301 13.6884 4.81921 13.9322C4.57542 14.176 4.24476 14.313 3.89998 14.313H3.88698C3.54219 14.313 3.21153 14.176 2.96774 13.9322C2.72394 13.6884 2.58698 13.3578 2.58698 13.013V13Z" fill="black" stroke="black" stroke-width="0.2" />
</svg>
  